<!-- Generated by IcoMoon.io -->
<svg version="1.1" xmlns="http://www.w3.org/2000/svg" width="73" height="32" viewBox="0 0 73 32">
<title>logo_mayfair_colour</title>
<path fill="#000" d="M35.664 7.624c-0.733 0.544-1.975 1.556-3.057 2.882-0.021-0.024-0.038-0.052-0.059-0.077-0.942-1.2-2.059-2.128-2.746-2.648 0.352-0.262 0.883-0.729 1.329-1.315 0.523-0.687 0.914-1.528 0.914-2.397 0-0.872-0.352-1.661-0.925-2.233s-1.361-0.925-2.233-0.925c-0.872 0-1.661 0.352-2.233 0.925s-0.925 1.361-0.925 2.233c0 0.904 0.384 1.738 0.893 2.411 0.45 0.593 0.987 1.050 1.347 1.312-0.67 0.53-1.776 1.479-2.718 2.676-0.307 0.387-0.597 0.803-0.848 1.239-0.785 1.35 0.091 3.105 0.091 3.105 0-0.799 0.258-1.577 0.639-2.303 0.963-1.828 2.722-3.318 3.566-3.974 0.070-0.052 0.133-0.101 0.188-0.143l0.122 0.087c0.656 0.482 1.964 1.518 2.962 2.896-0.045 0.070-0.091 0.136-0.136 0.206-0.789 1.218-1.347 2.617-1.347 4.117 0 0.663 0.105 1.302 0.3 1.898 0.202 0.621 0.499 1.197 0.876 1.713l0.087-0.063 0.070 0.108c0.754-0.488 1.378-1.162 1.811-1.957 0.419-0.768 0.656-1.65 0.656-2.586 0-0.869-0.216-1.703-0.565-2.477-0.133 0.178-0.265 0.366-0.391 0.562-0.108 0.168-0.209 0.338-0.3 0.506 0.143 0.454 0.227 0.925 0.227 1.41 0 0.757-0.192 1.469-0.53 2.090-0.195 0.359-0.44 0.687-0.722 0.974-0.091-0.195-0.171-0.398-0.241-0.604-0.16-0.499-0.251-1.029-0.251-1.581 0-1.298 0.499-2.505 1.183-3.559 1.27-1.964 3.175-3.409 3.929-3.932 0.056 0.042 0.122 0.087 0.192 0.143 0.719 0.544 2.108 1.696 3.231 3.179-0.583 0.991-0.98 2.107-0.98 3.29 0 0.935 0.237 1.818 0.656 2.586 0.433 0.792 1.057 1.465 1.811 1.957l0.024-0.038 0.017 0.010c0.188-0.258 0.359-0.53 0.506-0.813l0.014-0.021h-0.004c0.143-0.283 0.269-0.576 0.366-0.883 0.195-0.6 0.304-1.242 0.304-1.912 0-1.148-0.37-2.268-0.928-3.304-0.031 0.056-0.066 0.112-0.101 0.168-0.185 0.3-0.356 0.614-0.499 0.942 0.307 0.701 0.499 1.441 0.499 2.198 0 0.555-0.087 1.089-0.251 1.591-0.059 0.178-0.126 0.352-0.202 0.52-0.255-0.272-0.475-0.572-0.653-0.904-0.338-0.621-0.53-1.333-0.53-2.090 0-1.113 0.433-2.153 1.019-3.060 1.015-1.57 2.502-2.757 3.224-3.28 0.045-0.035 0.091-0.066 0.129-0.094 0.038 0.028 0.080 0.063 0.126 0.098 0.708 0.541 2.177 1.766 3.2 3.311 0.607 0.918 1.064 1.95 1.064 3.025 0 0 0.897-1.933-0.202-3.594-1.008-1.525-2.418-2.76-3.231-3.402 0.349-0.265 0.862-0.722 1.294-1.291 0.523-0.687 0.914-1.528 0.914-2.397 0-0.872-0.352-1.661-0.925-2.233s-1.361-0.925-2.233-0.925c-0.872 0-1.661 0.352-2.233 0.925s-0.925 1.361-0.925 2.233c0 0.904 0.384 1.738 0.893 2.411 0.426 0.565 0.932 1.005 1.294 1.27-0.691 0.523-1.786 1.441-2.708 2.62-0.049 0.063-0.098 0.126-0.147 0.192-1.078-1.347-2.324-2.411-3.067-2.987 0.394-0.293 1.001-0.823 1.511-1.493 0.579-0.761 1.019-1.696 1.019-2.662 0-0.96-0.391-1.828-1.019-2.456s-1.497-1.019-2.456-1.019c-0.96 0-1.828 0.391-2.456 1.019s-1.019 1.497-1.019 2.456c0 1.001 0.429 1.93 0.994 2.676 0.495 0.656 1.096 1.169 1.504 1.462v0zM44.471 1.996c1.176 0 2.128 0.953 2.128 2.128 0 1.622-1.996 3.071-2.128 3.071s-2.128-1.35-2.128-3.071c0-1.176 0.953-2.128 2.128-2.128zM28.884 1.94c1.176 0 2.128 0.953 2.128 2.128 0 1.622-1.996 3.071-2.128 3.071-0.136 0-2.128-1.35-2.128-3.071 0-1.176 0.953-2.128 2.128-2.128zM36.63 1.029c1.35 0 2.446 1.096 2.446 2.446 0 1.863-2.292 3.528-2.446 3.528-0.157 0-2.446-1.553-2.446-3.528 0-1.35 1.096-2.446 2.446-2.446z"></path>
<path fill="#e01f26" d="M3.66 22.317h0.96v4.236h-0.851v-2.756l-1.134 2.756h-0.645l-1.141-2.756v2.756h-0.848v-4.236h0.963l1.347 3.151 1.35-3.151zM5.237 24.861c0-0.338 0.066-0.642 0.202-0.904 0.136-0.265 0.321-0.468 0.551-0.607 0.234-0.143 0.492-0.213 0.782-0.213v0c0.251 0 0.471 0.052 0.659 0.154s0.338 0.227 0.45 0.384v0-0.482h0.858v3.364h-0.855v-0.492c-0.108 0.157-0.258 0.286-0.45 0.391s-0.415 0.157-0.666 0.157v0c-0.283 0-0.541-0.073-0.775-0.22s-0.415-0.352-0.551-0.618c-0.136-0.265-0.206-0.572-0.206-0.914v0zM7.886 24.871c0-0.206-0.042-0.384-0.122-0.53s-0.188-0.262-0.328-0.342-0.286-0.119-0.443-0.119v0c-0.157 0-0.304 0.038-0.436 0.115s-0.241 0.188-0.324 0.335-0.126 0.325-0.126 0.527v0c0 0.202 0.042 0.38 0.126 0.534 0.084 0.15 0.192 0.269 0.328 0.349s0.279 0.122 0.433 0.122v0c0.157 0 0.307-0.038 0.443-0.119s0.248-0.192 0.328-0.342c0.080-0.147 0.122-0.325 0.122-0.53v0zM11.884 23.19h0.904l-2.083 4.955h-0.904l0.729-1.675-1.347-3.276h0.953l0.869 2.348 0.879-2.352zM14.787 23.19v0.698h-0.59v2.666h-0.862v-2.666h-0.384v-0.698h0.384v-0.171c0-0.412 0.119-0.715 0.352-0.911s0.59-0.286 1.064-0.272v0 0.715c-0.206-0.003-0.352 0.031-0.433 0.105s-0.122 0.206-0.122 0.394v0 0.14h0.59zM15.122 24.861c0-0.338 0.066-0.642 0.202-0.904 0.136-0.265 0.321-0.468 0.551-0.607 0.234-0.143 0.492-0.213 0.782-0.213v0c0.251 0 0.471 0.052 0.659 0.154s0.338 0.227 0.454 0.384v0-0.482h0.855v3.364h-0.855v-0.492c-0.108 0.157-0.262 0.286-0.454 0.391s-0.412 0.157-0.663 0.157v0c-0.283 0-0.541-0.073-0.775-0.22s-0.415-0.352-0.551-0.618c-0.14-0.265-0.206-0.572-0.206-0.914v0zM17.767 24.871c0-0.206-0.042-0.384-0.122-0.53s-0.188-0.262-0.328-0.342c-0.14-0.080-0.286-0.119-0.443-0.119v0c-0.157 0-0.304 0.038-0.436 0.115s-0.241 0.188-0.325 0.335c-0.084 0.147-0.126 0.325-0.126 0.527v0c0 0.202 0.042 0.38 0.126 0.534 0.084 0.15 0.192 0.269 0.328 0.349s0.279 0.122 0.436 0.122v0c0.157 0 0.304-0.038 0.443-0.119 0.136-0.080 0.248-0.192 0.328-0.342s0.119-0.325 0.119-0.53v0zM19.885 22.788c-0.15 0-0.276-0.049-0.373-0.143s-0.147-0.213-0.147-0.356v0c0-0.14 0.049-0.258 0.147-0.356s0.223-0.143 0.373-0.143v0c0.15 0 0.272 0.049 0.373 0.143 0.098 0.094 0.147 0.213 0.147 0.356v0c0 0.143-0.049 0.262-0.147 0.356-0.098 0.098-0.223 0.143-0.373 0.143v0zM19.456 23.19h0.851v3.364h-0.851v-3.364zM21.993 23.713c0.108-0.178 0.251-0.318 0.429-0.419 0.174-0.101 0.377-0.154 0.604-0.154v0 0.893h-0.227c-0.265 0-0.468 0.063-0.604 0.188s-0.202 0.342-0.202 0.656v0 1.675h-0.848v-3.364h0.851v0.523zM27.705 22.317h0.851v4.236h-0.851v-1.804h-1.814v1.804h-0.851v-4.236h0.851v1.741h1.814v-1.741zM30.887 26.609c-0.325 0-0.614-0.073-0.872-0.216s-0.461-0.349-0.611-0.611c-0.147-0.265-0.223-0.569-0.223-0.911v0c0-0.345 0.077-0.649 0.227-0.911 0.15-0.265 0.359-0.468 0.621-0.611s0.555-0.216 0.879-0.216v0c0.325 0 0.618 0.073 0.879 0.216s0.471 0.345 0.621 0.611c0.15 0.262 0.227 0.565 0.227 0.911v0c0 0.342-0.077 0.645-0.234 0.911-0.157 0.262-0.366 0.468-0.632 0.611-0.262 0.143-0.558 0.216-0.883 0.216v0zM30.887 25.866c0.154 0 0.3-0.038 0.436-0.112 0.136-0.077 0.244-0.188 0.325-0.338s0.122-0.331 0.122-0.548v0c0-0.321-0.084-0.565-0.251-0.74-0.168-0.171-0.373-0.258-0.614-0.258v0c-0.244 0-0.447 0.087-0.611 0.258s-0.248 0.419-0.248 0.74v0c0 0.321 0.080 0.565 0.241 0.736 0.154 0.178 0.356 0.262 0.6 0.262v0zM35.583 23.19h0.858v3.364h-0.858v-0.426c-0.108 0.147-0.251 0.262-0.429 0.342-0.174 0.084-0.366 0.126-0.572 0.126v0c-0.265 0-0.495-0.056-0.698-0.168s-0.359-0.276-0.475-0.492c-0.115-0.216-0.174-0.475-0.174-0.775v0-1.971h0.851v1.849c0 0.269 0.066 0.475 0.199 0.618s0.314 0.213 0.548 0.213v0c0.234 0 0.419-0.070 0.551-0.213s0.199-0.349 0.199-0.618v0-1.849zM38.567 26.609c-0.276 0-0.523-0.049-0.74-0.15-0.22-0.098-0.391-0.234-0.52-0.405-0.126-0.171-0.195-0.356-0.209-0.562v0h0.855c0.017 0.129 0.080 0.237 0.192 0.321 0.112 0.087 0.248 0.129 0.415 0.129v0c0.16 0 0.29-0.031 0.38-0.098s0.136-0.147 0.136-0.248v0c0-0.108-0.056-0.192-0.167-0.248s-0.29-0.115-0.534-0.178v0c-0.251-0.063-0.457-0.126-0.614-0.188-0.16-0.063-0.297-0.164-0.415-0.297-0.115-0.133-0.171-0.314-0.171-0.541v0c0-0.185 0.052-0.356 0.16-0.509s0.262-0.276 0.461-0.363c0.199-0.091 0.436-0.133 0.708-0.133v0c0.401 0 0.719 0.101 0.96 0.3s0.37 0.471 0.394 0.809v0h-0.813c-0.014-0.133-0.066-0.241-0.167-0.318s-0.23-0.119-0.398-0.119v0c-0.154 0-0.272 0.028-0.356 0.087-0.084 0.056-0.126 0.136-0.126 0.237v0c0 0.115 0.056 0.199 0.171 0.258s0.29 0.119 0.527 0.178v0c0.244 0.059 0.443 0.122 0.6 0.188s0.293 0.164 0.408 0.3c0.115 0.136 0.174 0.314 0.178 0.537v0c0 0.195-0.052 0.366-0.16 0.52s-0.262 0.276-0.461 0.363c-0.195 0.080-0.429 0.126-0.694 0.126v0zM43.713 24.798c0 0.122-0.007 0.23-0.024 0.328v0h-2.46c0.021 0.244 0.105 0.433 0.255 0.569s0.335 0.206 0.551 0.206v0c0.318 0 0.541-0.136 0.673-0.408v0h0.918c-0.098 0.325-0.283 0.59-0.558 0.799s-0.614 0.314-1.012 0.314v0c-0.325 0-0.614-0.073-0.872-0.216s-0.457-0.349-0.6-0.611c-0.143-0.265-0.213-0.569-0.213-0.911v0c0-0.349 0.070-0.652 0.213-0.918s0.342-0.468 0.597-0.607c0.255-0.143 0.548-0.213 0.879-0.213v0c0.321 0 0.607 0.070 0.858 0.206 0.251 0.14 0.45 0.335 0.59 0.586 0.136 0.258 0.206 0.548 0.206 0.876v0zM41.236 24.557h1.598c-0.004-0.22-0.084-0.394-0.237-0.527-0.154-0.129-0.342-0.195-0.565-0.195v0c-0.209 0-0.387 0.063-0.53 0.192-0.147 0.126-0.234 0.304-0.265 0.53v0zM46.226 23.141c0.255 0 0.482 0.056 0.68 0.168s0.352 0.276 0.464 0.492c0.112 0.216 0.167 0.478 0.167 0.782v0 1.971h-0.851v-1.856c0-0.269-0.066-0.471-0.199-0.614s-0.314-0.216-0.548-0.216v0c-0.234 0-0.419 0.073-0.555 0.216s-0.202 0.349-0.202 0.614v0 1.856h-0.851v-4.491h0.851v1.549c0.108-0.147 0.255-0.262 0.436-0.342 0.181-0.087 0.384-0.129 0.607-0.129v0zM49.837 26.609c-0.325 0-0.614-0.073-0.872-0.216s-0.464-0.349-0.611-0.611c-0.147-0.265-0.223-0.569-0.223-0.911v0c0-0.345 0.077-0.649 0.23-0.911 0.15-0.265 0.359-0.468 0.621-0.611 0.265-0.143 0.558-0.216 0.879-0.216v0c0.325 0 0.618 0.073 0.879 0.216 0.265 0.143 0.471 0.345 0.621 0.611 0.15 0.262 0.227 0.565 0.227 0.911v0c0 0.342-0.077 0.645-0.234 0.911-0.157 0.262-0.366 0.468-0.632 0.611-0.262 0.143-0.558 0.216-0.886 0.216v0zM49.837 25.866c0.154 0 0.297-0.038 0.433-0.112 0.136-0.077 0.244-0.188 0.325-0.338s0.122-0.331 0.122-0.548v0c0-0.321-0.084-0.565-0.251-0.74-0.167-0.171-0.373-0.258-0.618-0.258v0c-0.244 0-0.447 0.087-0.611 0.258s-0.244 0.419-0.244 0.74v0c0 0.321 0.080 0.565 0.241 0.736 0.16 0.178 0.363 0.262 0.604 0.262v0zM52.217 22.063h0.851v4.491h-0.851v-4.491zM53.686 24.861c0-0.338 0.066-0.642 0.202-0.904 0.136-0.265 0.321-0.468 0.555-0.607 0.234-0.143 0.495-0.213 0.785-0.213v0c0.22 0 0.426 0.049 0.625 0.143s0.356 0.223 0.475 0.38v0-1.598h0.862v4.491h-0.862v-0.499c-0.105 0.168-0.251 0.3-0.443 0.401s-0.412 0.154-0.663 0.154v0c-0.283 0-0.541-0.073-0.778-0.22-0.234-0.147-0.419-0.352-0.555-0.618-0.133-0.262-0.202-0.569-0.202-0.911v0zM56.334 24.871c0-0.206-0.042-0.384-0.122-0.53s-0.188-0.262-0.328-0.342c-0.14-0.080-0.286-0.119-0.443-0.119v0c-0.157 0-0.304 0.038-0.436 0.115s-0.241 0.188-0.325 0.335c-0.084 0.147-0.126 0.325-0.126 0.527v0c0 0.202 0.042 0.38 0.126 0.534 0.084 0.15 0.192 0.269 0.328 0.349s0.279 0.122 0.436 0.122v0c0.157 0 0.304-0.038 0.443-0.119 0.136-0.080 0.248-0.192 0.328-0.342 0.077-0.147 0.119-0.325 0.119-0.53v0zM60.929 26.595c-0.297 0-0.562-0.049-0.799-0.15s-0.422-0.248-0.562-0.436c-0.14-0.188-0.209-0.415-0.213-0.673v0h0.911c0.014 0.174 0.073 0.311 0.185 0.412s0.265 0.154 0.457 0.154v0c0.199 0 0.356-0.049 0.468-0.143s0.171-0.22 0.171-0.373v0c0-0.126-0.038-0.227-0.115-0.311-0.077-0.080-0.174-0.147-0.29-0.192s-0.272-0.098-0.475-0.154v0c-0.276-0.080-0.499-0.16-0.67-0.241s-0.321-0.199-0.443-0.359c-0.122-0.16-0.185-0.373-0.185-0.639v0c0-0.251 0.063-0.471 0.188-0.656s0.3-0.328 0.527-0.429 0.485-0.147 0.778-0.147v0c0.436 0 0.792 0.105 1.064 0.318s0.426 0.509 0.454 0.89v0h-0.935c-0.007-0.147-0.070-0.265-0.185-0.363-0.115-0.094-0.269-0.143-0.457-0.143v0c-0.167 0-0.3 0.042-0.398 0.129-0.098 0.084-0.147 0.209-0.147 0.37v0c0 0.112 0.038 0.206 0.112 0.283 0.077 0.077 0.167 0.136 0.279 0.181s0.269 0.101 0.471 0.16v0c0.276 0.080 0.499 0.16 0.673 0.244s0.325 0.202 0.45 0.363c0.126 0.16 0.188 0.373 0.188 0.635v0c0 0.227-0.059 0.436-0.178 0.632-0.115 0.195-0.29 0.349-0.516 0.464-0.23 0.119-0.499 0.174-0.809 0.174v0zM64.904 23.887h-0.754v1.626c0 0.112 0.028 0.195 0.080 0.244 0.056 0.052 0.147 0.077 0.276 0.077v0h0.394v0.715h-0.534c-0.715 0-1.075-0.349-1.075-1.043v0-1.619h-0.401v-0.698h0.401v-0.83h0.855v0.83h0.754v0.698zM65.298 24.861c0-0.338 0.066-0.642 0.202-0.904 0.136-0.265 0.321-0.468 0.551-0.607 0.234-0.143 0.492-0.213 0.782-0.213v0c0.251 0 0.471 0.052 0.659 0.154s0.338 0.227 0.454 0.384v0-0.482h0.855v3.364h-0.855v-0.492c-0.108 0.157-0.262 0.286-0.454 0.391s-0.415 0.157-0.666 0.157v0c-0.283 0-0.541-0.073-0.775-0.22s-0.415-0.352-0.551-0.618c-0.133-0.265-0.202-0.572-0.202-0.914v0zM67.946 24.871c0-0.206-0.042-0.384-0.122-0.53s-0.192-0.262-0.328-0.342c-0.136-0.080-0.286-0.119-0.443-0.119v0c-0.157 0-0.304 0.038-0.436 0.115s-0.241 0.188-0.325 0.335-0.126 0.325-0.126 0.527v0c0 0.202 0.042 0.38 0.126 0.534 0.084 0.15 0.192 0.269 0.328 0.349s0.279 0.122 0.436 0.122v0c0.157 0 0.304-0.038 0.443-0.119s0.248-0.192 0.328-0.342c0.077-0.147 0.119-0.325 0.119-0.53v0zM71.174 23.19v0.698h-0.59v2.666h-0.862v-2.666h-0.384v-0.698h0.384v-0.171c0-0.412 0.119-0.715 0.352-0.911s0.59-0.286 1.061-0.272v0 0.715c-0.206-0.003-0.349 0.031-0.429 0.105s-0.122 0.206-0.122 0.394v0 0.14h0.59zM73.271 23.19v0.698h-0.59v2.666h-0.862v-2.666h-0.384v-0.698h0.384v-0.171c0-0.412 0.119-0.715 0.352-0.911s0.59-0.286 1.064-0.272v0 0.715c-0.206-0.003-0.349 0.031-0.429 0.105s-0.122 0.206-0.122 0.394v0 0.14h0.586z"></path>
<path fill="#7c7777" d="M6.42 29.833v1.807h-0.241v-0.837h-0.911v0.837h-0.237v-1.807h0.237v0.778h0.911v-0.778h0.241zM8.946 30.681v0.112c0 0.178-0.028 0.331-0.087 0.464s-0.143 0.234-0.251 0.304c-0.108 0.070-0.237 0.105-0.384 0.105v0c-0.143 0-0.269-0.035-0.377-0.105-0.112-0.070-0.195-0.171-0.258-0.3-0.059-0.129-0.091-0.279-0.094-0.45v0-0.129c0-0.174 0.031-0.328 0.091-0.461s0.147-0.234 0.258-0.304c0.112-0.070 0.237-0.105 0.377-0.105v0c0.147 0 0.272 0.035 0.384 0.105s0.195 0.171 0.255 0.304c0.056 0.129 0.087 0.283 0.087 0.461v0zM8.709 30.814v-0.133c0-0.213-0.042-0.38-0.129-0.495s-0.206-0.171-0.363-0.171v0c-0.15 0-0.269 0.056-0.356 0.171s-0.129 0.272-0.133 0.478v0 0.133c0 0.209 0.045 0.37 0.133 0.488s0.206 0.178 0.359 0.178v0c0.154 0 0.272-0.056 0.356-0.168 0.087-0.112 0.129-0.272 0.133-0.482v0zM11.047 29.833h0.241v1.228c0 0.171-0.056 0.311-0.161 0.419s-0.251 0.168-0.433 0.181v0l-0.063 0.003c-0.199 0-0.356-0.052-0.475-0.16-0.115-0.105-0.174-0.255-0.178-0.44v0-1.232h0.237v1.225c0 0.129 0.035 0.234 0.108 0.304 0.073 0.073 0.174 0.108 0.307 0.108v0c0.136 0 0.237-0.035 0.311-0.108 0.070-0.070 0.108-0.171 0.108-0.304v0-1.225zM12.907 30.835v0c-0.206-0.059-0.352-0.133-0.443-0.216-0.094-0.087-0.14-0.192-0.14-0.318v0c0-0.143 0.056-0.262 0.171-0.352 0.115-0.094 0.262-0.14 0.443-0.14v0c0.126 0 0.234 0.024 0.331 0.073s0.171 0.115 0.227 0.199c0.052 0.084 0.080 0.178 0.080 0.276v0h-0.237c0-0.108-0.035-0.195-0.105-0.258s-0.168-0.094-0.293-0.094v0c-0.119 0-0.209 0.024-0.276 0.077-0.073 0.052-0.105 0.126-0.105 0.216v0c0 0.073 0.031 0.136 0.094 0.185 0.063 0.052 0.171 0.098 0.318 0.14 0.15 0.042 0.269 0.087 0.352 0.14s0.147 0.112 0.188 0.178c0.042 0.066 0.059 0.147 0.059 0.241v0c0 0.147-0.056 0.262-0.171 0.352-0.115 0.087-0.265 0.133-0.457 0.133v0c-0.122 0-0.241-0.024-0.349-0.073s-0.188-0.112-0.248-0.195c-0.059-0.084-0.087-0.178-0.087-0.283v0h0.241c0 0.108 0.042 0.195 0.122 0.258s0.188 0.098 0.321 0.098v0c0.126 0 0.223-0.024 0.29-0.077s0.101-0.122 0.101-0.209c0-0.087-0.031-0.157-0.091-0.206-0.063-0.049-0.178-0.094-0.338-0.143zM15.614 30.608v0.195h-0.785v0.642h0.911v0.195h-1.148v-1.807h1.134v0.195h-0.897v0.579h0.785zM17.848 31.641l-0.639-0.841-0.223 0.23v0.611h-0.237v-1.807h0.237v0.893l0.803-0.893h0.29l-0.712 0.799 0.768 1.008h-0.286zM20.074 30.608v0.195h-0.782v0.642h0.911v0.195h-1.148v-1.807h1.134v0.195h-0.897v0.579h0.782zM22.23 30.608v0.195h-0.782v0.642h0.911v0.195h-1.148v-1.807h1.134v0.195h-0.897v0.579h0.782zM24.027 30.932h-0.426v0.708h-0.237v-1.807h0.666c0.199 0 0.352 0.049 0.464 0.15s0.168 0.234 0.168 0.401v0c0 0.174-0.056 0.311-0.164 0.405-0.108 0.098-0.265 0.143-0.471 0.143v0zM23.605 30.029v0.708h0.429c0.126 0 0.223-0.031 0.293-0.091 0.063-0.059 0.098-0.143 0.098-0.258v0c0-0.108-0.035-0.192-0.101-0.258-0.066-0.063-0.16-0.098-0.279-0.101v0h-0.44zM26.7 30.608v0.195h-0.785v0.642h0.911v0.195h-1.144v-1.807h1.134v0.195h-0.897v0.579h0.782zM28.891 31.641l-0.391-0.733h-0.426v0.733h-0.237v-1.807h0.597c0.206 0 0.359 0.045 0.471 0.14 0.108 0.091 0.164 0.227 0.164 0.405v0c0 0.112-0.031 0.209-0.091 0.293-0.063 0.084-0.147 0.147-0.255 0.188v0l0.426 0.768v0.014h-0.258zM28.071 30.029v0.684h0.366c0.119 0 0.213-0.031 0.283-0.091 0.070-0.063 0.105-0.143 0.105-0.244v0c0-0.112-0.035-0.195-0.101-0.258-0.066-0.059-0.164-0.091-0.29-0.091v0h-0.363zM30.643 30.835v0c-0.206-0.059-0.352-0.133-0.447-0.216-0.094-0.087-0.14-0.192-0.14-0.318v0c0-0.143 0.056-0.262 0.171-0.352 0.115-0.094 0.262-0.14 0.443-0.14v0c0.126 0 0.234 0.024 0.331 0.073s0.171 0.115 0.227 0.199c0.052 0.084 0.080 0.178 0.080 0.276v0h-0.241c0-0.108-0.035-0.195-0.105-0.258s-0.168-0.094-0.293-0.094v0c-0.119 0-0.209 0.024-0.276 0.077s-0.098 0.122-0.098 0.216v0c0 0.073 0.031 0.136 0.094 0.185 0.063 0.052 0.168 0.098 0.318 0.14s0.265 0.087 0.352 0.14c0.084 0.052 0.147 0.112 0.188 0.178s0.063 0.147 0.063 0.241v0c0 0.147-0.056 0.262-0.171 0.352-0.115 0.087-0.265 0.133-0.457 0.133v0c-0.126 0-0.241-0.024-0.349-0.073s-0.188-0.112-0.248-0.195c-0.059-0.084-0.087-0.178-0.087-0.283v0h0.237c0 0.108 0.042 0.195 0.122 0.258s0.188 0.098 0.325 0.098v0c0.126 0 0.223-0.024 0.29-0.077s0.101-0.122 0.101-0.209c0-0.087-0.031-0.157-0.094-0.206s-0.174-0.094-0.338-0.143zM32.286 32v0l-0.129-0.087c0.077-0.108 0.119-0.22 0.122-0.335v0-0.209h0.223v0.181c0 0.084-0.021 0.168-0.063 0.251-0.038 0.080-0.091 0.147-0.154 0.199zM36.267 29.833v1.807h-0.237l-0.911-1.392v1.392h-0.237v-1.807h0.237l0.911 1.399v-1.399h0.237zM38.595 31.641l-0.171-0.471h-0.757l-0.171 0.471h-0.244l0.687-1.807h0.209l0.691 1.807h-0.244zM38.043 30.13l-0.307 0.844h0.614l-0.307-0.844zM41.184 29.833v1.807h-0.237l-0.911-1.392v1.392h-0.241v-1.807h0.241l0.911 1.399v-1.399h0.237zM43.706 29.833v1.807h-0.241l-0.911-1.392v1.392h-0.241v-1.807h0.241l0.911 1.399v-1.399h0.241zM45.095 29.833v1.807h-0.237v-1.807h0.237zM47.266 30.608v0.195h-0.782v0.642h0.911v0.195h-1.148v-1.807h1.134v0.195h-0.897v0.579h0.782zM48.933 30.835v0c-0.206-0.059-0.352-0.133-0.447-0.216-0.094-0.087-0.14-0.192-0.14-0.318v0c0-0.143 0.056-0.262 0.171-0.352 0.115-0.094 0.262-0.14 0.443-0.14v0c0.126 0 0.234 0.024 0.331 0.073s0.174 0.115 0.227 0.199c0.052 0.084 0.080 0.178 0.080 0.276v0h-0.241c0-0.108-0.035-0.195-0.105-0.258s-0.167-0.094-0.293-0.094v0c-0.119 0-0.209 0.024-0.276 0.077s-0.098 0.122-0.098 0.216v0c0 0.073 0.031 0.136 0.094 0.185 0.063 0.052 0.167 0.098 0.318 0.14s0.265 0.087 0.352 0.14c0.087 0.052 0.15 0.112 0.188 0.178 0.042 0.066 0.063 0.147 0.063 0.241v0c0 0.147-0.056 0.262-0.171 0.352-0.115 0.087-0.265 0.133-0.457 0.133v0c-0.126 0-0.241-0.024-0.349-0.073s-0.188-0.112-0.248-0.195c-0.059-0.084-0.087-0.178-0.087-0.283v0h0.237c0 0.108 0.042 0.195 0.122 0.258s0.188 0.098 0.325 0.098v0c0.126 0 0.223-0.024 0.29-0.077s0.101-0.122 0.101-0.209c0-0.087-0.031-0.157-0.094-0.206s-0.178-0.094-0.338-0.143zM51.875 31.156v0c0-0.087 0.024-0.168 0.073-0.237 0.049-0.073 0.14-0.157 0.276-0.255v0c-0.080-0.098-0.133-0.174-0.16-0.237-0.028-0.059-0.042-0.119-0.042-0.178v0c0-0.136 0.042-0.244 0.122-0.325 0.080-0.077 0.192-0.115 0.331-0.115v0c0.126 0 0.227 0.035 0.307 0.108 0.080 0.070 0.122 0.164 0.122 0.272v0c0 0.073-0.017 0.14-0.056 0.202s-0.101 0.126-0.192 0.195v0l-0.133 0.098 0.401 0.482c0.056-0.108 0.084-0.227 0.084-0.359v0h0.206c0 0.209-0.052 0.387-0.154 0.527v0l0.258 0.311h-0.276l-0.119-0.143c-0.063 0.056-0.133 0.098-0.213 0.126-0.084 0.028-0.167 0.045-0.251 0.045v0c-0.178 0-0.318-0.045-0.426-0.14-0.108-0.101-0.16-0.223-0.16-0.377zM52.461 31.477v0c0.122 0 0.234-0.045 0.331-0.14v0l-0.44-0.527-0.042 0.028c-0.14 0.101-0.206 0.206-0.206 0.314v0c0 0.098 0.031 0.174 0.094 0.234 0.063 0.063 0.15 0.091 0.262 0.091zM52.252 30.241v0c0 0.080 0.049 0.178 0.147 0.297v0l0.147-0.101c0.056-0.042 0.094-0.080 0.115-0.115s0.031-0.080 0.031-0.133v0c0-0.056-0.021-0.101-0.063-0.14s-0.094-0.056-0.157-0.056v0c-0.066 0-0.122 0.024-0.16 0.070-0.038 0.049-0.059 0.108-0.059 0.178zM56.68 31.068h0.237c-0.021 0.192-0.094 0.338-0.213 0.443s-0.276 0.157-0.475 0.157v0c-0.213 0-0.384-0.077-0.513-0.23s-0.192-0.359-0.192-0.614v0-0.174c0-0.168 0.031-0.318 0.091-0.443s0.143-0.223 0.255-0.293c0.112-0.066 0.237-0.101 0.384-0.101v0c0.192 0 0.345 0.052 0.461 0.16s0.181 0.255 0.202 0.447v0h-0.237c-0.021-0.143-0.066-0.248-0.136-0.314-0.070-0.063-0.164-0.098-0.29-0.098v0c-0.154 0-0.272 0.056-0.359 0.168s-0.129 0.272-0.129 0.482v0 0.174c0 0.195 0.042 0.352 0.122 0.468s0.195 0.174 0.342 0.174v0c0.133 0 0.234-0.031 0.304-0.091 0.077-0.063 0.126-0.168 0.147-0.314v0zM59.126 31.641l-0.171-0.471h-0.757l-0.171 0.471h-0.248l0.691-1.807h0.209l0.691 1.807h-0.244zM58.574 30.13l-0.304 0.841h0.614l-0.311-0.841zM61.38 31.641l-0.391-0.733h-0.426v0.733h-0.237v-1.807h0.597c0.206 0 0.359 0.045 0.471 0.14 0.108 0.091 0.164 0.227 0.164 0.405v0c0 0.112-0.031 0.209-0.091 0.293-0.063 0.084-0.147 0.147-0.255 0.188v0l0.426 0.768v0.014h-0.258zM60.563 30.029v0.684h0.366c0.119 0 0.213-0.031 0.283-0.091 0.070-0.063 0.105-0.143 0.105-0.244v0c0-0.112-0.035-0.195-0.101-0.258-0.066-0.059-0.164-0.091-0.29-0.091v0h-0.363zM63.623 30.608v0.195h-0.782v0.642h0.911v0.195h-1.148v-1.807h1.134v0.195h-0.897v0.579h0.782zM65.811 31.641l-0.391-0.733h-0.422v0.733h-0.241v-1.807h0.6c0.202 0 0.359 0.045 0.468 0.14 0.112 0.091 0.164 0.227 0.164 0.405v0c0 0.112-0.031 0.209-0.091 0.293s-0.143 0.147-0.251 0.188v0l0.422 0.768v0.014h-0.258zM64.994 30.029v0.684h0.366c0.119 0 0.213-0.031 0.283-0.091 0.070-0.063 0.105-0.143 0.105-0.244v0c0-0.112-0.035-0.195-0.101-0.258-0.066-0.059-0.16-0.091-0.29-0.091v0h-0.363zM67.566 30.835v0c-0.206-0.059-0.352-0.133-0.447-0.216-0.094-0.087-0.14-0.192-0.14-0.318v0c0-0.143 0.056-0.262 0.171-0.352 0.115-0.094 0.262-0.14 0.443-0.14v0c0.122 0 0.234 0.024 0.331 0.073s0.171 0.115 0.227 0.199c0.052 0.084 0.080 0.178 0.080 0.276v0h-0.237c0-0.108-0.035-0.195-0.105-0.258s-0.168-0.094-0.293-0.094v0c-0.119 0-0.209 0.024-0.276 0.077s-0.098 0.122-0.098 0.216v0c0 0.073 0.031 0.136 0.094 0.185 0.063 0.052 0.171 0.098 0.318 0.14 0.15 0.042 0.269 0.087 0.352 0.14s0.147 0.112 0.188 0.178c0.042 0.066 0.063 0.147 0.063 0.241v0c0 0.147-0.056 0.262-0.171 0.352-0.115 0.087-0.269 0.133-0.457 0.133v0c-0.126 0-0.241-0.024-0.349-0.073s-0.188-0.112-0.248-0.195c-0.059-0.084-0.087-0.178-0.087-0.283v0h0.241c0 0.108 0.038 0.195 0.119 0.258s0.188 0.098 0.325 0.098v0c0.126 0 0.223-0.024 0.29-0.077s0.101-0.122 0.101-0.209c0-0.087-0.031-0.157-0.094-0.206-0.066-0.049-0.181-0.094-0.342-0.143z"></path>
</svg>
