<?xml version="1.0" standalone="no"?>
<!DOCTYPE svg PUBLIC "-//W3C//DTD SVG 20010904//EN"
 "http://www.w3.org/TR/2001/REC-SVG-20010904/DTD/svg10.dtd">
<svg version="1.0" xmlns="http://www.w3.org/2000/svg"
 width="512.000000pt" height="512.000000pt" viewBox="0 0 512.000000 512.000000"
 preserveAspectRatio="xMidYMid meet">
<metadata>
Created by potrace 1.14, written by Peter Selinger 2001-2017
</metadata>
<g transform="translate(0.000000,512.000000) scale(0.100000,-0.100000)"
fill="#000000" stroke="none">
<path d="M0 2560 l0 -2560 2560 0 2560 0 0 2560 0 2560 -2560 0 -2560 0 0
-2560z m2729 1844 c341 -89 557 -435 486 -780 -44 -209 -199 -442 -416 -624
l-56 -47 80 -64 c89 -70 385 -360 463 -452 l49 -58 40 53 c86 113 321 342 479
466 l30 23 -40 31 c-67 53 -190 183 -232 244 -55 82 -96 167 -123 254 -34 110
-33 266 4 368 34 98 80 172 148 240 190 188 464 234 698 116 105 -53 173 -111
235 -201 125 -184 138 -412 37 -630 -56 -119 -166 -261 -275 -355 -39 -34 -71
-64 -71 -67 0 -4 36 -37 80 -75 184 -158 374 -360 490 -521 117 -162 151 -273
142 -469 -3 -91 -11 -140 -29 -196 l-25 -75 -7 50 c-34 242 -144 464 -354 716
-97 115 -266 279 -395 383 l-97 78 -38 -28 c-162 -122 -358 -304 -467 -434
-143 -172 -262 -384 -306 -545 -27 -102 -36 -281 -19 -379 24 -139 102 -307
186 -400 31 -35 34 -32 69 77 69 214 58 447 -30 677 l-18 45 33 65 c18 35 44
82 58 104 l25 40 39 -78 c173 -343 182 -728 27 -1056 -49 -104 -110 -200 -126
-200 -23 0 -166 124 -226 195 -104 123 -177 266 -218 422 -26 101 -36 294 -20
402 17 113 71 278 129 393 l49 96 -97 114 c-164 191 -530 524 -567 516 -27 -7
-257 -195 -376 -309 -277 -265 -465 -538 -552 -804 -29 -90 -55 -242 -55 -325
0 -92 27 -241 61 -333 31 -87 32 -88 51 -70 70 63 164 236 199 368 28 103 30
288 6 388 -9 38 -17 76 -17 87 0 28 120 204 131 193 15 -15 66 -172 84 -259
23 -105 23 -303 0 -409 -40 -190 -128 -362 -257 -499 -105 -113 -178 -169
-211 -161 -61 16 -186 279 -223 472 -21 108 -23 318 -5 423 34 192 132 427
254 611 l17 26 -78 94 c-149 178 -499 491 -526 471 -152 -114 -398 -348 -511
-487 -192 -238 -302 -464 -323 -670 l-8 -70 -23 60 c-54 142 -67 320 -31 437
24 78 107 212 217 350 78 98 296 323 393 405 25 21 61 51 80 67 l34 28 -54 46
c-242 202 -370 435 -370 672 0 114 17 188 67 284 46 89 163 208 250 254 177
93 398 94 576 0 135 -71 262 -234 302 -388 26 -98 17 -261 -20 -360 -63 -171
-188 -338 -357 -475 l-37 -31 72 -54 c90 -69 338 -309 413 -401 l57 -69 35 42
c69 85 340 345 445 428 l108 85 -38 30 c-210 164 -373 398 -423 605 -119 499
326 941 819 814z"/>
<path d="M2490 4224 c-137 -27 -253 -101 -322 -208 -116 -179 -102 -397 38
-607 85 -128 273 -307 342 -325 30 -8 83 28 189 130 191 182 293 371 293 541
0 250 -194 455 -443 469 -40 3 -83 2 -97 0z"/>
<path d="M936 4029 c-232 -80 -337 -320 -246 -562 45 -119 173 -277 304 -374
32 -23 64 -43 72 -43 24 0 166 123 236 204 83 97 154 233 167 321 45 305 -246
553 -533 454z"/>
<path d="M3948 4021 c-31 -10 -71 -28 -90 -39 -59 -37 -126 -115 -160 -187
-29 -63 -33 -79 -33 -160 0 -112 26 -193 94 -297 64 -97 121 -160 208 -229 99
-79 103 -79 171 -28 131 99 254 251 310 381 23 55 27 77 27 168 0 98 -2 110
-32 172 -41 87 -114 160 -199 200 -86 40 -209 48 -296 19z"/>
</g>
</svg>
